<mxfile host="app.diagrams.net" modified="2021-01-09T15:06:53.098Z" agent="5.0 (Windows NT 10.0; Win64; x64) AppleWebKit/537.36 (KHTML, like Gecko) Chrome/87.0.4280.88 Safari/537.36 Edg/87.0.664.66" etag="Hq3hybGb7PuPftHr_jd0" version="14.1.8" type="github">
  <diagram id="C5RBs43oDa-KdzZeNtuy" name="Page-1">
    <mxGraphModel dx="1695" dy="1651" grid="1" gridSize="10" guides="1" tooltips="1" connect="1" arrows="1" fold="1" page="1" pageScale="1" pageWidth="827" pageHeight="1169" math="0" shadow="0">
      <root>
        <mxCell id="WIyWlLk6GJQsqaUBKTNV-0" />
        <mxCell id="WIyWlLk6GJQsqaUBKTNV-1" parent="WIyWlLk6GJQsqaUBKTNV-0" />
        <mxCell id="U7MY-IpCY7Ir71Thvj8e-0" value="IDLE" style="rounded=1;whiteSpace=wrap;html=1;" parent="WIyWlLk6GJQsqaUBKTNV-1" vertex="1">
          <mxGeometry x="310" y="60" width="120" height="40" as="geometry" />
        </mxCell>
        <mxCell id="U7MY-IpCY7Ir71Thvj8e-1" value="" style="endArrow=none;html=1;entryX=0.5;entryY=1;entryDx=0;entryDy=0;" parent="WIyWlLk6GJQsqaUBKTNV-1" target="U7MY-IpCY7Ir71Thvj8e-0" edge="1">
          <mxGeometry width="50" height="50" relative="1" as="geometry">
            <mxPoint x="370" y="120" as="sourcePoint" />
            <mxPoint x="440" y="250" as="targetPoint" />
          </mxGeometry>
        </mxCell>
        <mxCell id="U7MY-IpCY7Ir71Thvj8e-2" value="START?" style="rhombus;whiteSpace=wrap;html=1;" parent="WIyWlLk6GJQsqaUBKTNV-1" vertex="1">
          <mxGeometry x="330" y="120" width="80" height="80" as="geometry" />
        </mxCell>
        <mxCell id="U7MY-IpCY7Ir71Thvj8e-4" value="NO" style="text;html=1;align=center;verticalAlign=middle;resizable=0;points=[];autosize=1;" parent="WIyWlLk6GJQsqaUBKTNV-1" vertex="1">
          <mxGeometry x="300" y="140" width="30" height="20" as="geometry" />
        </mxCell>
        <mxCell id="U7MY-IpCY7Ir71Thvj8e-5" value="" style="endArrow=none;html=1;entryX=0.5;entryY=1;entryDx=0;entryDy=0;" parent="WIyWlLk6GJQsqaUBKTNV-1" target="U7MY-IpCY7Ir71Thvj8e-2" edge="1">
          <mxGeometry width="50" height="50" relative="1" as="geometry">
            <mxPoint x="370" y="220" as="sourcePoint" />
            <mxPoint x="440" y="250" as="targetPoint" />
          </mxGeometry>
        </mxCell>
        <mxCell id="U7MY-IpCY7Ir71Thvj8e-6" value="WAIT" style="rounded=1;whiteSpace=wrap;html=1;" parent="WIyWlLk6GJQsqaUBKTNV-1" vertex="1">
          <mxGeometry x="310" y="220" width="120" height="40" as="geometry" />
        </mxCell>
        <mxCell id="U7MY-IpCY7Ir71Thvj8e-8" value="" style="endArrow=none;html=1;entryX=0.5;entryY=1;entryDx=0;entryDy=0;" parent="WIyWlLk6GJQsqaUBKTNV-1" target="U7MY-IpCY7Ir71Thvj8e-6" edge="1">
          <mxGeometry width="50" height="50" relative="1" as="geometry">
            <mxPoint x="370" y="280" as="sourcePoint" />
            <mxPoint x="440" y="240" as="targetPoint" />
          </mxGeometry>
        </mxCell>
        <mxCell id="U7MY-IpCY7Ir71Thvj8e-9" value="M1" style="rounded=1;whiteSpace=wrap;html=1;" parent="WIyWlLk6GJQsqaUBKTNV-1" vertex="1">
          <mxGeometry x="310" y="280" width="120" height="40" as="geometry" />
        </mxCell>
        <mxCell id="U7MY-IpCY7Ir71Thvj8e-10" value="" style="endArrow=none;html=1;exitX=0.5;exitY=1;exitDx=0;exitDy=0;" parent="WIyWlLk6GJQsqaUBKTNV-1" source="U7MY-IpCY7Ir71Thvj8e-9" edge="1">
          <mxGeometry width="50" height="50" relative="1" as="geometry">
            <mxPoint x="390" y="290" as="sourcePoint" />
            <mxPoint x="370" y="340" as="targetPoint" />
          </mxGeometry>
        </mxCell>
        <mxCell id="U7MY-IpCY7Ir71Thvj8e-11" value="memorizzazioneM1&lt;br&gt;m3" style="rounded=1;whiteSpace=wrap;html=1;" parent="WIyWlLk6GJQsqaUBKTNV-1" vertex="1">
          <mxGeometry x="310" y="340" width="120" height="40" as="geometry" />
        </mxCell>
        <mxCell id="U7MY-IpCY7Ir71Thvj8e-12" value="somma1&lt;br&gt;m2&lt;br&gt;memorizzazioneM3" style="rounded=1;whiteSpace=wrap;html=1;" parent="WIyWlLk6GJQsqaUBKTNV-1" vertex="1">
          <mxGeometry x="310" y="400" width="120" height="40" as="geometry" />
        </mxCell>
        <mxCell id="U7MY-IpCY7Ir71Thvj8e-13" value="" style="endArrow=none;html=1;entryX=0.5;entryY=1;entryDx=0;entryDy=0;" parent="WIyWlLk6GJQsqaUBKTNV-1" target="U7MY-IpCY7Ir71Thvj8e-12" edge="1">
          <mxGeometry width="50" height="50" relative="1" as="geometry">
            <mxPoint x="370" y="460" as="sourcePoint" />
            <mxPoint x="440" y="420" as="targetPoint" />
          </mxGeometry>
        </mxCell>
        <mxCell id="U7MY-IpCY7Ir71Thvj8e-14" value="memorizzazioneS1&lt;br&gt;memorizzazioneM2&lt;br&gt;somma3&lt;br&gt;m4" style="rounded=1;whiteSpace=wrap;html=1;" parent="WIyWlLk6GJQsqaUBKTNV-1" vertex="1">
          <mxGeometry x="310" y="460" width="120" height="60" as="geometry" />
        </mxCell>
        <mxCell id="U7MY-IpCY7Ir71Thvj8e-15" value="" style="endArrow=none;html=1;exitX=0.5;exitY=1;exitDx=0;exitDy=0;" parent="WIyWlLk6GJQsqaUBKTNV-1" source="U7MY-IpCY7Ir71Thvj8e-14" edge="1">
          <mxGeometry width="50" height="50" relative="1" as="geometry">
            <mxPoint x="390" y="470" as="sourcePoint" />
            <mxPoint x="370" y="520" as="targetPoint" />
          </mxGeometry>
        </mxCell>
        <mxCell id="U7MY-IpCY7Ir71Thvj8e-16" value="somma2&lt;br&gt;m5&lt;br&gt;memorizzazioneS3&lt;br&gt;memorizzazioneM4" style="rounded=1;whiteSpace=wrap;html=1;" parent="WIyWlLk6GJQsqaUBKTNV-1" vertex="1">
          <mxGeometry x="310" y="530" width="120" height="60" as="geometry" />
        </mxCell>
        <mxCell id="U7MY-IpCY7Ir71Thvj8e-17" value="" style="endArrow=none;html=1;entryX=0.5;entryY=1;entryDx=0;entryDy=0;exitX=0.5;exitY=0;exitDx=0;exitDy=0;" parent="WIyWlLk6GJQsqaUBKTNV-1" source="U7MY-IpCY7Ir71Thvj8e-12" target="U7MY-IpCY7Ir71Thvj8e-11" edge="1">
          <mxGeometry width="50" height="50" relative="1" as="geometry">
            <mxPoint x="390" y="410" as="sourcePoint" />
            <mxPoint x="440" y="360" as="targetPoint" />
          </mxGeometry>
        </mxCell>
        <mxCell id="U7MY-IpCY7Ir71Thvj8e-18" value="memorizzazioneS2&lt;br&gt;memorizzazioneM5&lt;br&gt;somma4&lt;br&gt;m6" style="rounded=1;whiteSpace=wrap;html=1;" parent="WIyWlLk6GJQsqaUBKTNV-1" vertex="1">
          <mxGeometry x="310" y="600" width="120" height="60" as="geometry" />
        </mxCell>
        <mxCell id="U7MY-IpCY7Ir71Thvj8e-25" value="" style="endArrow=none;html=1;exitX=0.5;exitY=1;exitDx=0;exitDy=0;entryX=0.5;entryY=0;entryDx=0;entryDy=0;" parent="WIyWlLk6GJQsqaUBKTNV-1" source="U7MY-IpCY7Ir71Thvj8e-16" target="U7MY-IpCY7Ir71Thvj8e-18" edge="1">
          <mxGeometry width="50" height="50" relative="1" as="geometry">
            <mxPoint x="390" y="460" as="sourcePoint" />
            <mxPoint x="440" y="410" as="targetPoint" />
          </mxGeometry>
        </mxCell>
        <mxCell id="U7MY-IpCY7Ir71Thvj8e-27" value="FULL&amp;nbsp;&lt;br&gt;SPEED?" style="rhombus;whiteSpace=wrap;html=1;" parent="WIyWlLk6GJQsqaUBKTNV-1" vertex="1">
          <mxGeometry x="331.5" y="770" width="80" height="80" as="geometry" />
        </mxCell>
        <mxCell id="U7MY-IpCY7Ir71Thvj8e-28" value="" style="endArrow=none;html=1;entryX=0;entryY=0.5;entryDx=0;entryDy=0;exitX=0.5;exitY=0;exitDx=0;exitDy=0;" parent="WIyWlLk6GJQsqaUBKTNV-1" target="U7MY-IpCY7Ir71Thvj8e-27" edge="1" source="U7MY-IpCY7Ir71Thvj8e-33">
          <mxGeometry width="50" height="50" relative="1" as="geometry">
            <mxPoint x="238" y="840" as="sourcePoint" />
            <mxPoint x="438" y="780" as="targetPoint" />
            <Array as="points">
              <mxPoint x="238" y="810" />
            </Array>
          </mxGeometry>
        </mxCell>
        <mxCell id="U7MY-IpCY7Ir71Thvj8e-30" value="" style="endArrow=none;html=1;exitX=1;exitY=0.5;exitDx=0;exitDy=0;entryX=0.5;entryY=0;entryDx=0;entryDy=0;" parent="WIyWlLk6GJQsqaUBKTNV-1" source="U7MY-IpCY7Ir71Thvj8e-27" edge="1" target="U7MY-IpCY7Ir71Thvj8e-47">
          <mxGeometry width="50" height="50" relative="1" as="geometry">
            <mxPoint x="388" y="830" as="sourcePoint" />
            <mxPoint x="498" y="780" as="targetPoint" />
            <Array as="points">
              <mxPoint x="502" y="810" />
            </Array>
          </mxGeometry>
        </mxCell>
        <mxCell id="U7MY-IpCY7Ir71Thvj8e-31" value="SI" style="text;html=1;align=center;verticalAlign=middle;resizable=0;points=[];autosize=1;" parent="WIyWlLk6GJQsqaUBKTNV-1" vertex="1">
          <mxGeometry x="283" y="780" width="30" height="20" as="geometry" />
        </mxCell>
        <mxCell id="U7MY-IpCY7Ir71Thvj8e-32" value="NO" style="text;html=1;align=center;verticalAlign=middle;resizable=0;points=[];autosize=1;" parent="WIyWlLk6GJQsqaUBKTNV-1" vertex="1">
          <mxGeometry x="433" y="780" width="30" height="20" as="geometry" />
        </mxCell>
        <mxCell id="U7MY-IpCY7Ir71Thvj8e-33" value="loadA&#39;R&lt;br&gt;memorizzaioneS5&lt;br&gt;rounding&lt;br&gt;somma6&lt;br&gt;load nuovi dati" style="rounded=1;whiteSpace=wrap;html=1;" parent="WIyWlLk6GJQsqaUBKTNV-1" vertex="1">
          <mxGeometry x="178" y="820" width="120" height="70" as="geometry" />
        </mxCell>
        <mxCell id="U7MY-IpCY7Ir71Thvj8e-34" value="" style="endArrow=none;html=1;entryX=0.5;entryY=1;entryDx=0;entryDy=0;" parent="WIyWlLk6GJQsqaUBKTNV-1" edge="1">
          <mxGeometry width="50" height="50" relative="1" as="geometry">
            <mxPoint x="238" y="910" as="sourcePoint" />
            <mxPoint x="238" y="890" as="targetPoint" />
          </mxGeometry>
        </mxCell>
        <mxCell id="U7MY-IpCY7Ir71Thvj8e-35" value="round&lt;br&gt;load A&#39;I&amp;nbsp;&lt;br&gt;memorizzazioneS6&lt;br&gt;m1" style="rounded=1;whiteSpace=wrap;html=1;" parent="WIyWlLk6GJQsqaUBKTNV-1" vertex="1">
          <mxGeometry x="178" y="900" width="120" height="60" as="geometry" />
        </mxCell>
        <mxCell id="U7MY-IpCY7Ir71Thvj8e-37" value="load B&#39;R&lt;br&gt;rounding&lt;br&gt;memorizzazioneM1&lt;br&gt;m3" style="rounded=1;whiteSpace=wrap;html=1;" parent="WIyWlLk6GJQsqaUBKTNV-1" vertex="1">
          <mxGeometry x="180" y="980" width="120" height="60" as="geometry" />
        </mxCell>
        <mxCell id="U7MY-IpCY7Ir71Thvj8e-38" value="load B&#39;I&lt;br&gt;somma1&lt;br&gt;m2&lt;br&gt;memorizzazioneM3" style="rounded=1;whiteSpace=wrap;html=1;" parent="WIyWlLk6GJQsqaUBKTNV-1" vertex="1">
          <mxGeometry x="180" y="1060" width="120" height="60" as="geometry" />
        </mxCell>
        <mxCell id="U7MY-IpCY7Ir71Thvj8e-39" value="" style="endArrow=none;html=1;entryX=0.5;entryY=1;entryDx=0;entryDy=0;" parent="WIyWlLk6GJQsqaUBKTNV-1" target="U7MY-IpCY7Ir71Thvj8e-38" edge="1">
          <mxGeometry width="50" height="50" relative="1" as="geometry">
            <mxPoint x="240" y="1190" as="sourcePoint" />
            <mxPoint x="310" y="1150" as="targetPoint" />
          </mxGeometry>
        </mxCell>
        <mxCell id="U7MY-IpCY7Ir71Thvj8e-40" value="memorizzazioneS1&lt;br&gt;memorizzazioneM2&lt;br&gt;somma3&lt;br&gt;M4" style="rounded=1;whiteSpace=wrap;html=1;" parent="WIyWlLk6GJQsqaUBKTNV-1" vertex="1">
          <mxGeometry x="180" y="1130" width="120" height="60" as="geometry" />
        </mxCell>
        <mxCell id="U7MY-IpCY7Ir71Thvj8e-41" value="" style="endArrow=none;html=1;exitX=0.5;exitY=1;exitDx=0;exitDy=0;" parent="WIyWlLk6GJQsqaUBKTNV-1" source="U7MY-IpCY7Ir71Thvj8e-40" edge="1">
          <mxGeometry width="50" height="50" relative="1" as="geometry">
            <mxPoint x="260" y="1200" as="sourcePoint" />
            <mxPoint x="240" y="1250" as="targetPoint" />
          </mxGeometry>
        </mxCell>
        <mxCell id="U7MY-IpCY7Ir71Thvj8e-42" value="somma2&lt;br&gt;m5&lt;br&gt;memorizzazioneS3&lt;br&gt;memorizzazioneM4" style="rounded=1;whiteSpace=wrap;html=1;" parent="WIyWlLk6GJQsqaUBKTNV-1" vertex="1">
          <mxGeometry x="180" y="1200" width="120" height="60" as="geometry" />
        </mxCell>
        <mxCell id="U7MY-IpCY7Ir71Thvj8e-43" value="" style="endArrow=none;html=1;entryX=0.5;entryY=1;entryDx=0;entryDy=0;exitX=0.5;exitY=0;exitDx=0;exitDy=0;" parent="WIyWlLk6GJQsqaUBKTNV-1" source="U7MY-IpCY7Ir71Thvj8e-38" target="U7MY-IpCY7Ir71Thvj8e-37" edge="1">
          <mxGeometry width="50" height="50" relative="1" as="geometry">
            <mxPoint x="260" y="1140" as="sourcePoint" />
            <mxPoint x="310" y="1090" as="targetPoint" />
          </mxGeometry>
        </mxCell>
        <mxCell id="U7MY-IpCY7Ir71Thvj8e-44" value="memorizzazioneS2&lt;br&gt;memorizzazioneM5&lt;br&gt;somma4&lt;br&gt;m6" style="rounded=1;whiteSpace=wrap;html=1;" parent="WIyWlLk6GJQsqaUBKTNV-1" vertex="1">
          <mxGeometry x="180" y="1270" width="120" height="60" as="geometry" />
        </mxCell>
        <mxCell id="U7MY-IpCY7Ir71Thvj8e-45" value="" style="endArrow=none;html=1;exitX=0.5;exitY=1;exitDx=0;exitDy=0;entryX=0.5;entryY=0;entryDx=0;entryDy=0;" parent="WIyWlLk6GJQsqaUBKTNV-1" source="U7MY-IpCY7Ir71Thvj8e-42" target="U7MY-IpCY7Ir71Thvj8e-44" edge="1">
          <mxGeometry width="50" height="50" relative="1" as="geometry">
            <mxPoint x="260" y="1190" as="sourcePoint" />
            <mxPoint x="310" y="1140" as="targetPoint" />
          </mxGeometry>
        </mxCell>
        <mxCell id="U7MY-IpCY7Ir71Thvj8e-47" value="load A&#39;R&lt;br&gt;memorizzazioneS5&lt;br&gt;rounding&lt;br&gt;somma6" style="rounded=1;whiteSpace=wrap;html=1;" parent="WIyWlLk6GJQsqaUBKTNV-1" vertex="1">
          <mxGeometry x="442" y="825" width="120" height="60" as="geometry" />
        </mxCell>
        <mxCell id="U7MY-IpCY7Ir71Thvj8e-48" value="rounding&lt;br&gt;load A&#39;I&lt;br&gt;memorizzazioneS6&lt;br&gt;" style="rounded=1;whiteSpace=wrap;html=1;" parent="WIyWlLk6GJQsqaUBKTNV-1" vertex="1">
          <mxGeometry x="442" y="900" width="120" height="50" as="geometry" />
        </mxCell>
        <mxCell id="U7MY-IpCY7Ir71Thvj8e-49" value="" style="endArrow=none;html=1;entryX=0.5;entryY=1;entryDx=0;entryDy=0;exitX=0.5;exitY=0;exitDx=0;exitDy=0;" parent="WIyWlLk6GJQsqaUBKTNV-1" source="U7MY-IpCY7Ir71Thvj8e-48" target="U7MY-IpCY7Ir71Thvj8e-47" edge="1">
          <mxGeometry width="50" height="50" relative="1" as="geometry">
            <mxPoint x="408" y="1090" as="sourcePoint" />
            <mxPoint x="458" y="1040" as="targetPoint" />
          </mxGeometry>
        </mxCell>
        <mxCell id="U7MY-IpCY7Ir71Thvj8e-50" value="" style="endArrow=none;html=1;exitX=0.5;exitY=1;exitDx=0;exitDy=0;" parent="WIyWlLk6GJQsqaUBKTNV-1" source="0m0kzLlapoQritPfsvde-11" edge="1">
          <mxGeometry width="50" height="50" relative="1" as="geometry">
            <mxPoint x="400" y="990" as="sourcePoint" />
            <mxPoint x="240" y="1380" as="targetPoint" />
          </mxGeometry>
        </mxCell>
        <mxCell id="U7MY-IpCY7Ir71Thvj8e-54" value="load B&#39;R&lt;br&gt;rounding" style="rounded=1;whiteSpace=wrap;html=1;" parent="WIyWlLk6GJQsqaUBKTNV-1" vertex="1">
          <mxGeometry x="442" y="970" width="120" height="40" as="geometry" />
        </mxCell>
        <mxCell id="U7MY-IpCY7Ir71Thvj8e-55" value="" style="endArrow=none;html=1;entryX=0.5;entryY=1;entryDx=0;entryDy=0;exitX=0.5;exitY=0;exitDx=0;exitDy=0;" parent="WIyWlLk6GJQsqaUBKTNV-1" source="U7MY-IpCY7Ir71Thvj8e-54" target="U7MY-IpCY7Ir71Thvj8e-48" edge="1">
          <mxGeometry width="50" height="50" relative="1" as="geometry">
            <mxPoint x="408" y="1090" as="sourcePoint" />
            <mxPoint x="458" y="1040" as="targetPoint" />
          </mxGeometry>
        </mxCell>
        <mxCell id="U7MY-IpCY7Ir71Thvj8e-58" value="FULL SPEED&lt;br&gt;STESSE OPERAZIONI&amp;nbsp;&lt;br&gt;CON I NUOVI DATI" style="text;html=1;align=center;verticalAlign=middle;resizable=0;points=[];autosize=1;" parent="WIyWlLk6GJQsqaUBKTNV-1" vertex="1">
          <mxGeometry x="-85" y="770" width="140" height="50" as="geometry" />
        </mxCell>
        <mxCell id="U7MY-IpCY7Ir71Thvj8e-61" value="SI" style="text;html=1;align=center;verticalAlign=middle;resizable=0;points=[];autosize=1;" parent="WIyWlLk6GJQsqaUBKTNV-1" vertex="1">
          <mxGeometry x="365" y="200" width="30" height="20" as="geometry" />
        </mxCell>
        <mxCell id="0m0kzLlapoQritPfsvde-1" value="" style="endArrow=none;html=1;exitX=0.5;exitY=0;exitDx=0;exitDy=0;entryX=0.5;entryY=1;entryDx=0;entryDy=0;" parent="WIyWlLk6GJQsqaUBKTNV-1" source="U7MY-IpCY7Ir71Thvj8e-0" edge="1" target="0m0kzLlapoQritPfsvde-2">
          <mxGeometry width="50" height="50" relative="1" as="geometry">
            <mxPoint x="380" y="250" as="sourcePoint" />
            <mxPoint x="370" y="40" as="targetPoint" />
          </mxGeometry>
        </mxCell>
        <mxCell id="0m0kzLlapoQritPfsvde-2" value="LOAD W" style="rounded=1;whiteSpace=wrap;html=1;" parent="WIyWlLk6GJQsqaUBKTNV-1" vertex="1">
          <mxGeometry x="310" y="-10" width="120" height="40" as="geometry" />
        </mxCell>
        <mxCell id="0m0kzLlapoQritPfsvde-3" value="" style="endArrow=none;html=1;exitX=0.5;exitY=0;exitDx=0;exitDy=0;" parent="WIyWlLk6GJQsqaUBKTNV-1" source="0m0kzLlapoQritPfsvde-2" target="0m0kzLlapoQritPfsvde-4" edge="1">
          <mxGeometry width="50" height="50" relative="1" as="geometry">
            <mxPoint x="380" y="70" as="sourcePoint" />
            <mxPoint x="370" y="-20" as="targetPoint" />
          </mxGeometry>
        </mxCell>
        <mxCell id="0m0kzLlapoQritPfsvde-4" value="RESET" style="rounded=1;whiteSpace=wrap;html=1;" parent="WIyWlLk6GJQsqaUBKTNV-1" vertex="1">
          <mxGeometry x="310" y="-80" width="120" height="40" as="geometry" />
        </mxCell>
        <mxCell id="0m0kzLlapoQritPfsvde-6" value="" style="endArrow=none;html=1;entryX=0.5;entryY=1;entryDx=0;entryDy=0;" parent="WIyWlLk6GJQsqaUBKTNV-1" target="U7MY-IpCY7Ir71Thvj8e-54" edge="1">
          <mxGeometry width="50" height="50" relative="1" as="geometry">
            <mxPoint x="502" y="1030" as="sourcePoint" />
            <mxPoint x="428" y="790" as="targetPoint" />
          </mxGeometry>
        </mxCell>
        <mxCell id="0m0kzLlapoQritPfsvde-7" value="LOAD B&#39;I" style="rounded=1;whiteSpace=wrap;html=1;" parent="WIyWlLk6GJQsqaUBKTNV-1" vertex="1">
          <mxGeometry x="442" y="1030" width="120" height="40" as="geometry" />
        </mxCell>
        <mxCell id="0m0kzLlapoQritPfsvde-8" value="" style="endArrow=none;html=1;entryX=0.5;entryY=1;entryDx=0;entryDy=0;" parent="WIyWlLk6GJQsqaUBKTNV-1" target="0m0kzLlapoQritPfsvde-7" edge="1">
          <mxGeometry width="50" height="50" relative="1" as="geometry">
            <mxPoint x="502" y="1090" as="sourcePoint" />
            <mxPoint x="428" y="960" as="targetPoint" />
          </mxGeometry>
        </mxCell>
        <mxCell id="0m0kzLlapoQritPfsvde-9" value="DONE=1" style="rounded=1;whiteSpace=wrap;html=1;" parent="WIyWlLk6GJQsqaUBKTNV-1" vertex="1">
          <mxGeometry x="442" y="1090" width="120" height="40" as="geometry" />
        </mxCell>
        <mxCell id="0m0kzLlapoQritPfsvde-12" value="loadA&#39;R&lt;br&gt;memorizzazioneS5&lt;br&gt;rounding&lt;br&gt;somma6" style="rounded=1;whiteSpace=wrap;html=1;" parent="WIyWlLk6GJQsqaUBKTNV-1" vertex="1">
          <mxGeometry x="180" y="1420" width="120" height="60" as="geometry" />
        </mxCell>
        <mxCell id="0m0kzLlapoQritPfsvde-13" value="" style="endArrow=none;html=1;entryX=0.5;entryY=1;entryDx=0;entryDy=0;exitX=0.5;exitY=0;exitDx=0;exitDy=0;" parent="WIyWlLk6GJQsqaUBKTNV-1" source="0m0kzLlapoQritPfsvde-12" target="0m0kzLlapoQritPfsvde-11" edge="1">
          <mxGeometry width="50" height="50" relative="1" as="geometry">
            <mxPoint x="146" y="1620" as="sourcePoint" />
            <mxPoint x="196" y="1570" as="targetPoint" />
          </mxGeometry>
        </mxCell>
        <mxCell id="0m0kzLlapoQritPfsvde-14" value="rounding&lt;br&gt;load A&#39;I&lt;br&gt;memorizzazioneS6" style="rounded=1;whiteSpace=wrap;html=1;" parent="WIyWlLk6GJQsqaUBKTNV-1" vertex="1">
          <mxGeometry x="180" y="1500" width="120" height="40" as="geometry" />
        </mxCell>
        <mxCell id="0m0kzLlapoQritPfsvde-15" value="" style="endArrow=none;html=1;entryX=0.5;entryY=1;entryDx=0;entryDy=0;exitX=0.5;exitY=0;exitDx=0;exitDy=0;" parent="WIyWlLk6GJQsqaUBKTNV-1" source="0m0kzLlapoQritPfsvde-14" target="0m0kzLlapoQritPfsvde-12" edge="1">
          <mxGeometry width="50" height="50" relative="1" as="geometry">
            <mxPoint x="146" y="1620" as="sourcePoint" />
            <mxPoint x="196" y="1570" as="targetPoint" />
          </mxGeometry>
        </mxCell>
        <mxCell id="0m0kzLlapoQritPfsvde-16" value="" style="endArrow=none;html=1;entryX=0.5;entryY=1;entryDx=0;entryDy=0;" parent="WIyWlLk6GJQsqaUBKTNV-1" target="0m0kzLlapoQritPfsvde-14" edge="1">
          <mxGeometry width="50" height="50" relative="1" as="geometry">
            <mxPoint x="240" y="1560" as="sourcePoint" />
            <mxPoint x="166" y="1320" as="targetPoint" />
          </mxGeometry>
        </mxCell>
        <mxCell id="0m0kzLlapoQritPfsvde-17" value="load B&#39;R&lt;br&gt;rounding" style="rounded=1;whiteSpace=wrap;html=1;" parent="WIyWlLk6GJQsqaUBKTNV-1" vertex="1">
          <mxGeometry x="180" y="1560" width="120" height="40" as="geometry" />
        </mxCell>
        <mxCell id="0m0kzLlapoQritPfsvde-18" value="" style="endArrow=none;html=1;entryX=0.5;entryY=1;entryDx=0;entryDy=0;" parent="WIyWlLk6GJQsqaUBKTNV-1" target="0m0kzLlapoQritPfsvde-17" edge="1">
          <mxGeometry width="50" height="50" relative="1" as="geometry">
            <mxPoint x="240" y="1620" as="sourcePoint" />
            <mxPoint x="166" y="1490" as="targetPoint" />
          </mxGeometry>
        </mxCell>
        <mxCell id="0m0kzLlapoQritPfsvde-19" value="load B&#39;I" style="rounded=1;whiteSpace=wrap;html=1;" parent="WIyWlLk6GJQsqaUBKTNV-1" vertex="1">
          <mxGeometry x="180" y="1620" width="120" height="40" as="geometry" />
        </mxCell>
        <mxCell id="afpEEvx1LVi_tAe3_V21-6" value="" style="endArrow=none;html=1;exitX=1.067;exitY=1.05;exitDx=0;exitDy=0;exitPerimeter=0;entryX=0.175;entryY=-0.075;entryDx=0;entryDy=0;entryPerimeter=0;" parent="WIyWlLk6GJQsqaUBKTNV-1" source="U7MY-IpCY7Ir71Thvj8e-4" target="U7MY-IpCY7Ir71Thvj8e-0" edge="1">
          <mxGeometry width="50" height="50" relative="1" as="geometry">
            <mxPoint x="360" y="120" as="sourcePoint" />
            <mxPoint x="310" y="50" as="targetPoint" />
            <Array as="points">
              <mxPoint x="280" y="160" />
              <mxPoint x="280" y="40" />
              <mxPoint x="331" y="40" />
            </Array>
          </mxGeometry>
        </mxCell>
        <mxCell id="-jwK9LRrfJCunyXVnD-i-0" value="rounding&lt;br&gt;somma5&lt;br&gt;memorizzazioneS4&lt;br&gt;memorizzazioneM6" style="rounded=1;whiteSpace=wrap;html=1;" vertex="1" parent="WIyWlLk6GJQsqaUBKTNV-1">
          <mxGeometry x="310" y="680" width="120" height="60" as="geometry" />
        </mxCell>
        <mxCell id="-jwK9LRrfJCunyXVnD-i-1" value="" style="endArrow=none;html=1;entryX=0.5;entryY=1;entryDx=0;entryDy=0;exitX=0.5;exitY=0;exitDx=0;exitDy=0;" edge="1" parent="WIyWlLk6GJQsqaUBKTNV-1" source="-jwK9LRrfJCunyXVnD-i-0" target="U7MY-IpCY7Ir71Thvj8e-18">
          <mxGeometry width="50" height="50" relative="1" as="geometry">
            <mxPoint x="300" y="670" as="sourcePoint" />
            <mxPoint x="350" y="620" as="targetPoint" />
          </mxGeometry>
        </mxCell>
        <mxCell id="-jwK9LRrfJCunyXVnD-i-2" value="" style="endArrow=none;html=1;entryX=0.5;entryY=1;entryDx=0;entryDy=0;exitX=0.5;exitY=0;exitDx=0;exitDy=0;" edge="1" parent="WIyWlLk6GJQsqaUBKTNV-1" source="U7MY-IpCY7Ir71Thvj8e-27" target="-jwK9LRrfJCunyXVnD-i-0">
          <mxGeometry width="50" height="50" relative="1" as="geometry">
            <mxPoint x="300" y="670" as="sourcePoint" />
            <mxPoint x="350" y="620" as="targetPoint" />
          </mxGeometry>
        </mxCell>
        <mxCell id="0m0kzLlapoQritPfsvde-11" value="rounding&lt;br&gt;somma5&lt;br&gt;memorizzazioneS4&lt;br&gt;memorizzazioneM6" style="rounded=1;whiteSpace=wrap;html=1;" parent="WIyWlLk6GJQsqaUBKTNV-1" vertex="1">
          <mxGeometry x="180" y="1340" width="120" height="60" as="geometry" />
        </mxCell>
        <mxCell id="-jwK9LRrfJCunyXVnD-i-3" value="" style="endArrow=none;html=1;exitX=0.5;exitY=1;exitDx=0;exitDy=0;" edge="1" parent="WIyWlLk6GJQsqaUBKTNV-1" source="U7MY-IpCY7Ir71Thvj8e-44" target="0m0kzLlapoQritPfsvde-11">
          <mxGeometry width="50" height="50" relative="1" as="geometry">
            <mxPoint x="240" y="1330" as="sourcePoint" />
            <mxPoint x="240" y="1380" as="targetPoint" />
          </mxGeometry>
        </mxCell>
        <mxCell id="-jwK9LRrfJCunyXVnD-i-4" value="done=1" style="rounded=1;whiteSpace=wrap;html=1;" vertex="1" parent="WIyWlLk6GJQsqaUBKTNV-1">
          <mxGeometry x="180" y="1670" width="120" height="40" as="geometry" />
        </mxCell>
        <mxCell id="-jwK9LRrfJCunyXVnD-i-5" value="" style="endArrow=none;html=1;entryX=0.5;entryY=1;entryDx=0;entryDy=0;exitX=0.5;exitY=0;exitDx=0;exitDy=0;" edge="1" parent="WIyWlLk6GJQsqaUBKTNV-1" source="-jwK9LRrfJCunyXVnD-i-4" target="0m0kzLlapoQritPfsvde-19">
          <mxGeometry width="50" height="50" relative="1" as="geometry">
            <mxPoint x="300" y="1730" as="sourcePoint" />
            <mxPoint x="350" y="1680" as="targetPoint" />
          </mxGeometry>
        </mxCell>
        <mxCell id="-jwK9LRrfJCunyXVnD-i-6" value="00000" style="text;html=1;align=center;verticalAlign=middle;resizable=0;points=[];autosize=1;" vertex="1" parent="WIyWlLk6GJQsqaUBKTNV-1">
          <mxGeometry x="185" y="-80" width="50" height="20" as="geometry" />
        </mxCell>
        <mxCell id="-jwK9LRrfJCunyXVnD-i-7" value="00001|0" style="text;html=1;align=center;verticalAlign=middle;resizable=0;points=[];autosize=1;" vertex="1" parent="WIyWlLk6GJQsqaUBKTNV-1">
          <mxGeometry x="470" y="-80" width="60" height="20" as="geometry" />
        </mxCell>
        <mxCell id="-jwK9LRrfJCunyXVnD-i-8" value="00001" style="text;html=1;align=center;verticalAlign=middle;resizable=0;points=[];autosize=1;" vertex="1" parent="WIyWlLk6GJQsqaUBKTNV-1">
          <mxGeometry x="195" y="-10" width="50" height="20" as="geometry" />
        </mxCell>
        <mxCell id="-jwK9LRrfJCunyXVnD-i-9" value="00010|0" style="text;html=1;align=center;verticalAlign=middle;resizable=0;points=[];autosize=1;" vertex="1" parent="WIyWlLk6GJQsqaUBKTNV-1">
          <mxGeometry x="470" y="-10" width="60" height="20" as="geometry" />
        </mxCell>
        <mxCell id="-jwK9LRrfJCunyXVnD-i-10" value="00010" style="text;html=1;align=center;verticalAlign=middle;resizable=0;points=[];autosize=1;" vertex="1" parent="WIyWlLk6GJQsqaUBKTNV-1">
          <mxGeometry x="195" y="70" width="50" height="20" as="geometry" />
        </mxCell>
        <mxCell id="-jwK9LRrfJCunyXVnD-i-11" value="00010|0" style="text;html=1;align=center;verticalAlign=middle;resizable=0;points=[];autosize=1;" vertex="1" parent="WIyWlLk6GJQsqaUBKTNV-1">
          <mxGeometry x="460" y="70" width="60" height="20" as="geometry" />
        </mxCell>
        <mxCell id="-jwK9LRrfJCunyXVnD-i-12" value="00011|1" style="text;html=1;align=center;verticalAlign=middle;resizable=0;points=[];autosize=1;" vertex="1" parent="WIyWlLk6GJQsqaUBKTNV-1">
          <mxGeometry x="460" y="90" width="60" height="20" as="geometry" />
        </mxCell>
        <mxCell id="-jwK9LRrfJCunyXVnD-i-13" value="00011|1" style="text;html=1;align=center;verticalAlign=middle;resizable=0;points=[];autosize=1;" vertex="1" parent="WIyWlLk6GJQsqaUBKTNV-1">
          <mxGeometry x="180" y="230" width="60" height="20" as="geometry" />
        </mxCell>
        <mxCell id="-jwK9LRrfJCunyXVnD-i-14" value="00100|1" style="text;html=1;align=center;verticalAlign=middle;resizable=0;points=[];autosize=1;" vertex="1" parent="WIyWlLk6GJQsqaUBKTNV-1">
          <mxGeometry x="460" y="230" width="60" height="20" as="geometry" />
        </mxCell>
        <mxCell id="-jwK9LRrfJCunyXVnD-i-15" value="00100" style="text;html=1;align=center;verticalAlign=middle;resizable=0;points=[];autosize=1;" vertex="1" parent="WIyWlLk6GJQsqaUBKTNV-1">
          <mxGeometry x="175" y="290" width="50" height="20" as="geometry" />
        </mxCell>
        <mxCell id="-jwK9LRrfJCunyXVnD-i-16" value="00101|1" style="text;html=1;align=center;verticalAlign=middle;resizable=0;points=[];autosize=1;" vertex="1" parent="WIyWlLk6GJQsqaUBKTNV-1">
          <mxGeometry x="460" y="290" width="60" height="20" as="geometry" />
        </mxCell>
        <mxCell id="-jwK9LRrfJCunyXVnD-i-17" value="00101" style="text;html=1;align=center;verticalAlign=middle;resizable=0;points=[];autosize=1;" vertex="1" parent="WIyWlLk6GJQsqaUBKTNV-1">
          <mxGeometry x="165" y="350" width="50" height="20" as="geometry" />
        </mxCell>
        <mxCell id="-jwK9LRrfJCunyXVnD-i-18" value="00110|1" style="text;html=1;align=center;verticalAlign=middle;resizable=0;points=[];autosize=1;" vertex="1" parent="WIyWlLk6GJQsqaUBKTNV-1">
          <mxGeometry x="430" y="350" width="60" height="20" as="geometry" />
        </mxCell>
        <mxCell id="-jwK9LRrfJCunyXVnD-i-19" value="00110" style="text;html=1;align=center;verticalAlign=middle;resizable=0;points=[];autosize=1;" vertex="1" parent="WIyWlLk6GJQsqaUBKTNV-1">
          <mxGeometry x="175" y="400" width="50" height="20" as="geometry" />
        </mxCell>
        <mxCell id="-jwK9LRrfJCunyXVnD-i-20" value="00111|1" style="text;html=1;align=center;verticalAlign=middle;resizable=0;points=[];autosize=1;" vertex="1" parent="WIyWlLk6GJQsqaUBKTNV-1">
          <mxGeometry x="470" y="410" width="60" height="20" as="geometry" />
        </mxCell>
        <mxCell id="-jwK9LRrfJCunyXVnD-i-21" value="00111" style="text;html=1;align=center;verticalAlign=middle;resizable=0;points=[];autosize=1;" vertex="1" parent="WIyWlLk6GJQsqaUBKTNV-1">
          <mxGeometry x="175" y="470" width="50" height="20" as="geometry" />
        </mxCell>
        <mxCell id="-jwK9LRrfJCunyXVnD-i-22" value="01000|1" style="text;html=1;align=center;verticalAlign=middle;resizable=0;points=[];autosize=1;" vertex="1" parent="WIyWlLk6GJQsqaUBKTNV-1">
          <mxGeometry x="453" y="470" width="60" height="20" as="geometry" />
        </mxCell>
        <mxCell id="-jwK9LRrfJCunyXVnD-i-23" value="01000" style="text;html=1;align=center;verticalAlign=middle;resizable=0;points=[];autosize=1;" vertex="1" parent="WIyWlLk6GJQsqaUBKTNV-1">
          <mxGeometry x="165" y="550" width="50" height="20" as="geometry" />
        </mxCell>
        <mxCell id="-jwK9LRrfJCunyXVnD-i-24" value="01001|1" style="text;html=1;align=center;verticalAlign=middle;resizable=0;points=[];autosize=1;" vertex="1" parent="WIyWlLk6GJQsqaUBKTNV-1">
          <mxGeometry x="450" y="550" width="60" height="20" as="geometry" />
        </mxCell>
        <mxCell id="-jwK9LRrfJCunyXVnD-i-25" value="01001" style="text;html=1;align=center;verticalAlign=middle;resizable=0;points=[];autosize=1;" vertex="1" parent="WIyWlLk6GJQsqaUBKTNV-1">
          <mxGeometry x="165" y="620" width="50" height="20" as="geometry" />
        </mxCell>
        <mxCell id="-jwK9LRrfJCunyXVnD-i-26" value="01010|1" style="text;html=1;align=center;verticalAlign=middle;resizable=0;points=[];autosize=1;" vertex="1" parent="WIyWlLk6GJQsqaUBKTNV-1">
          <mxGeometry x="450" y="610" width="60" height="20" as="geometry" />
        </mxCell>
        <mxCell id="-jwK9LRrfJCunyXVnD-i-27" value="01010" style="text;html=1;align=center;verticalAlign=middle;resizable=0;points=[];autosize=1;" vertex="1" parent="WIyWlLk6GJQsqaUBKTNV-1">
          <mxGeometry x="185" y="700" width="50" height="20" as="geometry" />
        </mxCell>
        <mxCell id="-jwK9LRrfJCunyXVnD-i-28" value="01011|1" style="text;html=1;align=center;verticalAlign=middle;resizable=0;points=[];autosize=1;" vertex="1" parent="WIyWlLk6GJQsqaUBKTNV-1">
          <mxGeometry x="440" y="690" width="60" height="20" as="geometry" />
        </mxCell>
        <mxCell id="-jwK9LRrfJCunyXVnD-i-29" value="00011|0" style="text;html=1;align=center;verticalAlign=middle;resizable=0;points=[];autosize=1;" vertex="1" parent="WIyWlLk6GJQsqaUBKTNV-1">
          <mxGeometry x="442" y="710" width="60" height="20" as="geometry" />
        </mxCell>
        <mxCell id="-jwK9LRrfJCunyXVnD-i-30" value="01100|1" style="text;html=1;align=center;verticalAlign=middle;resizable=0;points=[];autosize=1;" vertex="1" parent="WIyWlLk6GJQsqaUBKTNV-1">
          <mxGeometry x="570" y="830" width="60" height="20" as="geometry" />
        </mxCell>
        <mxCell id="-jwK9LRrfJCunyXVnD-i-31" value="01101|1" style="text;html=1;align=center;verticalAlign=middle;resizable=0;points=[];autosize=1;" vertex="1" parent="WIyWlLk6GJQsqaUBKTNV-1">
          <mxGeometry x="570" y="910" width="60" height="20" as="geometry" />
        </mxCell>
        <mxCell id="-jwK9LRrfJCunyXVnD-i-32" value="01110|1" style="text;html=1;align=center;verticalAlign=middle;resizable=0;points=[];autosize=1;" vertex="1" parent="WIyWlLk6GJQsqaUBKTNV-1">
          <mxGeometry x="560" y="980" width="60" height="20" as="geometry" />
        </mxCell>
        <mxCell id="-jwK9LRrfJCunyXVnD-i-33" value="01111|1" style="text;html=1;align=center;verticalAlign=middle;resizable=0;points=[];autosize=1;" vertex="1" parent="WIyWlLk6GJQsqaUBKTNV-1">
          <mxGeometry x="570" y="1040" width="60" height="20" as="geometry" />
        </mxCell>
        <mxCell id="-jwK9LRrfJCunyXVnD-i-34" value="00010|1" style="text;html=1;align=center;verticalAlign=middle;resizable=0;points=[];autosize=1;" vertex="1" parent="WIyWlLk6GJQsqaUBKTNV-1">
          <mxGeometry x="580" y="1100" width="60" height="20" as="geometry" />
        </mxCell>
        <mxCell id="-jwK9LRrfJCunyXVnD-i-35" value="00100|0" style="text;html=1;align=center;verticalAlign=middle;resizable=0;points=[];autosize=1;" vertex="1" parent="WIyWlLk6GJQsqaUBKTNV-1">
          <mxGeometry x="70" y="840" width="60" height="20" as="geometry" />
        </mxCell>
        <mxCell id="-jwK9LRrfJCunyXVnD-i-36" value="00101|0" style="text;html=1;align=center;verticalAlign=middle;resizable=0;points=[];autosize=1;" vertex="1" parent="WIyWlLk6GJQsqaUBKTNV-1">
          <mxGeometry x="60" y="910" width="60" height="20" as="geometry" />
        </mxCell>
        <mxCell id="-jwK9LRrfJCunyXVnD-i-37" value="00110|0" style="text;html=1;align=center;verticalAlign=middle;resizable=0;points=[];autosize=1;" vertex="1" parent="WIyWlLk6GJQsqaUBKTNV-1">
          <mxGeometry x="70" y="1000" width="60" height="20" as="geometry" />
        </mxCell>
        <mxCell id="-jwK9LRrfJCunyXVnD-i-38" value="00111|0" style="text;html=1;align=center;verticalAlign=middle;resizable=0;points=[];autosize=1;" vertex="1" parent="WIyWlLk6GJQsqaUBKTNV-1">
          <mxGeometry x="60" y="1070" width="60" height="20" as="geometry" />
        </mxCell>
        <mxCell id="-jwK9LRrfJCunyXVnD-i-39" value="01000|0" style="text;html=1;align=center;verticalAlign=middle;resizable=0;points=[];autosize=1;" vertex="1" parent="WIyWlLk6GJQsqaUBKTNV-1">
          <mxGeometry x="70" y="1150" width="60" height="20" as="geometry" />
        </mxCell>
        <mxCell id="-jwK9LRrfJCunyXVnD-i-40" value="01001|0" style="text;html=1;align=center;verticalAlign=middle;resizable=0;points=[];autosize=1;" vertex="1" parent="WIyWlLk6GJQsqaUBKTNV-1">
          <mxGeometry x="60" y="1220" width="60" height="20" as="geometry" />
        </mxCell>
        <mxCell id="-jwK9LRrfJCunyXVnD-i-41" value="01010|0" style="text;html=1;align=center;verticalAlign=middle;resizable=0;points=[];autosize=1;" vertex="1" parent="WIyWlLk6GJQsqaUBKTNV-1">
          <mxGeometry x="60" y="1290" width="60" height="20" as="geometry" />
        </mxCell>
        <mxCell id="-jwK9LRrfJCunyXVnD-i-42" value="01011|0" style="text;html=1;align=center;verticalAlign=middle;resizable=0;points=[];autosize=1;" vertex="1" parent="WIyWlLk6GJQsqaUBKTNV-1">
          <mxGeometry x="70" y="1360" width="60" height="20" as="geometry" />
        </mxCell>
        <mxCell id="-jwK9LRrfJCunyXVnD-i-43" value="01100|0" style="text;html=1;align=center;verticalAlign=middle;resizable=0;points=[];autosize=1;" vertex="1" parent="WIyWlLk6GJQsqaUBKTNV-1">
          <mxGeometry x="60" y="1440" width="60" height="20" as="geometry" />
        </mxCell>
        <mxCell id="-jwK9LRrfJCunyXVnD-i-44" value="01101|0" style="text;html=1;align=center;verticalAlign=middle;resizable=0;points=[];autosize=1;" vertex="1" parent="WIyWlLk6GJQsqaUBKTNV-1">
          <mxGeometry x="60" y="1510" width="60" height="20" as="geometry" />
        </mxCell>
        <mxCell id="-jwK9LRrfJCunyXVnD-i-45" value="01110|0" style="text;html=1;align=center;verticalAlign=middle;resizable=0;points=[];autosize=1;" vertex="1" parent="WIyWlLk6GJQsqaUBKTNV-1">
          <mxGeometry x="50" y="1570" width="60" height="20" as="geometry" />
        </mxCell>
        <mxCell id="-jwK9LRrfJCunyXVnD-i-46" value="01111|0" style="text;html=1;align=center;verticalAlign=middle;resizable=0;points=[];autosize=1;" vertex="1" parent="WIyWlLk6GJQsqaUBKTNV-1">
          <mxGeometry x="50" y="1640" width="60" height="20" as="geometry" />
        </mxCell>
        <mxCell id="-jwK9LRrfJCunyXVnD-i-47" value="00010|0" style="text;html=1;align=center;verticalAlign=middle;resizable=0;points=[];autosize=1;" vertex="1" parent="WIyWlLk6GJQsqaUBKTNV-1">
          <mxGeometry x="60" y="1690" width="60" height="20" as="geometry" />
        </mxCell>
      </root>
    </mxGraphModel>
  </diagram>
</mxfile>
